{
 "asset": {
  "version": "2.0",
  "generator": "RageV test fixture"
 },
 "scene": 0,
 "scenes": [
  {
   "name": "Scene",
   "nodes": [
    0
   ]
  }
 ],
 "nodes": [
  {
   "name": "Pivot",
   "translation": [
    2.0,
    0.5,
    -1.0
   ],
   "children": [
    1
   ]
  },
  {
   "name": "CubeNode",
   "mesh": 0,
   "rotation": [
    0.0,
    0.3826834,
    0.0,
    0.9238795
   ],
   "scale": [
    0.5,
    0.5,
    0.5
   ]
  }
 ],
 "meshes": [
  {
   "name": "Cube",
   "primitives": [
    {
     "attributes": {
      "POSITION": 0,
      "NORMAL": 1,
      "TEXCOORD_0": 2
     },
     "indices": 3,
     "material": 0
    }
   ]
  }
 ],
 "materials": [
  {
   "name": "TestRed",
   "pbrMetallicRoughness": {
    "baseColorFactor": [
     0.85,
     0.17,
     0.19,
     1.0
    ],
    "metallicFactor": 0.25,
    "roughnessFactor": 0.65
   },
   "emissiveFactor": [
    0.02,
    0.0,
    0.0
   ]
  }
 ],
 "buffers": [
  {
   "byteLength": 840,
   "uri": "data:application/octet-stream;base64,"
  }
 ],
 "bufferViews": [
  {
   "buffer": 0,
   "byteOffset": 0,
   "byteLength": 288,
   "target": 34962
  },
  {
   "buffer": 0,
   "byteOffset": 288,
   "byteLength": 288,
   "target": 34962
  },
  {
   "buffer": 0,
   "byteOffset": 576,
   "byteLength": 192,
   "target": 34962
  },
  {
   "buffer": 0,
   "byteOffset": 768,
   "byteLength": 72,
   "target": 34963
  }
 ],
 "accessors": [
  {
   "bufferView": 0,
   "componentType": 5126,
   "count": 24,
   "type": "VEC3",
   "min": [
    -1,
    -1,
    -1
   ],
   "max": [
    1,
    1,
    1
   ]
  },
  {
   "bufferView": 1,
   "componentType": 5126,
   "count": 24,
   "type": "VEC3"
  },
  {
   "bufferView": 2,
   "componentType": 5126,
   "count": 24,
   "type": "VEC2"
  },
  {
   "bufferView": 3,
   "componentType": 5123,
   "count": 36,
   "type": "SCALAR"
  }
 ]
}