{
 "asset": {
  "version": "2.0",
  "generator": "make_textured_model.py"
 },
 "scene": 0,
 "scenes": [
  {
   "nodes": [
    0
   ]
  }
 ],
 "nodes": [
  {
   "mesh": 0,
   "name": "TexturedCube"
  }
 ],
 "meshes": [
  {
   "name": "TexturedCube",
   "primitives": [
    {
     "attributes": {
      "POSITION": 0,
      "NORMAL": 1,
      "TEXCOORD_0": 2
     },
     "indices": 3,
     "material": 0
    }
   ]
  }
 ],
 "materials": [
  {
   "name": "Textured",
   "pbrMetallicRoughness": {
    "baseColorTexture": {
     "index": 0
    },
    "metallicRoughnessTexture": {
     "index": 1
    },
    "metallicFactor": 1.0,
    "roughnessFactor": 1.0
   },
   "normalTexture": {
    "index": 2
   }
  }
 ],
 "textures": [
  {
   "source": 0
  },
  {
   "source": 1
  },
  {
   "source": 2
  }
 ],
 "images": [
  {
   "uri": "textured_basecolor.png"
  },
  {
   "uri": "textured_mr.png"
  },
  {
   "uri": "textured_normal.png"
  }
 ],
 "accessors": [
  {
   "bufferView": 0,
   "componentType": 5126,
   "count": 24,
   "type": "VEC3",
   "min": [
    -0.5,
    -0.5,
    -0.5
   ],
   "max": [
    0.5,
    0.5,
    0.5
   ]
  },
  {
   "bufferView": 1,
   "componentType": 5126,
   "count": 24,
   "type": "VEC3",
   "min": [
    -1,
    -1,
    -1
   ],
   "max": [
    1,
    1,
    1
   ]
  },
  {
   "bufferView": 2,
   "componentType": 5126,
   "count": 24,
   "type": "VEC2"
  },
  {
   "bufferView": 3,
   "componentType": 5123,
   "count": 36,
   "type": "SCALAR"
  }
 ],
 "bufferViews": [
  {
   "buffer": 0,
   "byteOffset": 0,
   "byteLength": 288,
   "target": 34962
  },
  {
   "buffer": 0,
   "byteOffset": 288,
   "byteLength": 288,
   "target": 34962
  },
  {
   "buffer": 0,
   "byteOffset": 576,
   "byteLength": 192,
   "target": 34962
  },
  {
   "buffer": 0,
   "byteOffset": 768,
   "byteLength": 72,
   "target": 34963
  }
 ],
 "buffers": [
  {
   "byteLength": 840,
   "uri": "data:application/octet-stream;base64,"
  }
 ]
}