{
 "asset": {
  "version": "2.0",
  "generator": "RageV tools/scripts/make_skinned_gltf.py"
 },
 "scene": 0,
 "scenes": [
  {
   "nodes": [
    0,
    1
   ]
  }
 ],
 "nodes": [
  {
   "name": "Limb",
   "mesh": 0,
   "skin": 0
  },
  {
   "name": "Bone0",
   "children": [
    2
   ],
   "translation": [
    0.0,
    0.0,
    0.0
   ]
  },
  {
   "name": "Bone1",
   "translation": [
    0.0,
    1.0,
    0.0
   ]
  }
 ],
 "meshes": [
  {
   "name": "LimbMesh",
   "primitives": [
    {
     "attributes": {
      "POSITION": 0,
      "NORMAL": 1,
      "TEXCOORD_0": 2,
      "JOINTS_0": 3,
      "WEIGHTS_0": 4
     },
     "indices": 5,
     "material": 0
    }
   ]
  }
 ],
 "skins": [
  {
   "name": "LimbSkin",
   "inverseBindMatrices": 6,
   "skeleton": 1,
   "joints": [
    1,
    2
   ]
  }
 ],
 "animations": [
  {
   "name": "Bend",
   "samplers": [
    {
     "input": 7,
     "output": 8,
     "interpolation": "LINEAR"
    }
   ],
   "channels": [
    {
     "sampler": 0,
     "target": {
      "node": 2,
      "path": "rotation"
     }
    }
   ]
  }
 ],
 "materials": [
  {
   "name": "LimbMaterial",
   "pbrMetallicRoughness": {
    "baseColorFactor": [
     0.82,
     0.31,
     0.28,
     1.0
    ],
    "metallicFactor": 0.0,
    "roughnessFactor": 0.55
   }
  }
 ],
 "bufferViews": [
  {
   "buffer": 0,
   "byteOffset": 0,
   "byteLength": 960,
   "target": 34962
  },
  {
   "buffer": 0,
   "byteOffset": 960,
   "byteLength": 960,
   "target": 34962
  },
  {
   "buffer": 0,
   "byteOffset": 1920,
   "byteLength": 640,
   "target": 34962
  },
  {
   "buffer": 0,
   "byteOffset": 2560,
   "byteLength": 320,
   "target": 34962
  },
  {
   "buffer": 0,
   "byteOffset": 2880,
   "byteLength": 1280,
   "target": 34962
  },
  {
   "buffer": 0,
   "byteOffset": 4160,
   "byteLength": 408,
   "target": 34963
  },
  {
   "buffer": 0,
   "byteOffset": 4568,
   "byteLength": 128
  },
  {
   "buffer": 0,
   "byteOffset": 4696,
   "byteLength": 68
  },
  {
   "buffer": 0,
   "byteOffset": 4764,
   "byteLength": 272
  }
 ],
 "accessors": [
  {
   "bufferView": 0,
   "componentType": 5126,
   "count": 80,
   "type": "VEC3",
   "min": [
    -0.15,
    0.0,
    -0.15
   ],
   "max": [
    0.15,
    2.0,
    0.15
   ]
  },
  {
   "bufferView": 1,
   "componentType": 5126,
   "count": 80,
   "type": "VEC3"
  },
  {
   "bufferView": 2,
   "componentType": 5126,
   "count": 80,
   "type": "VEC2"
  },
  {
   "bufferView": 3,
   "componentType": 5121,
   "count": 80,
   "type": "VEC4"
  },
  {
   "bufferView": 4,
   "componentType": 5126,
   "count": 80,
   "type": "VEC4"
  },
  {
   "bufferView": 5,
   "componentType": 5123,
   "count": 204,
   "type": "SCALAR"
  },
  {
   "bufferView": 6,
   "componentType": 5126,
   "count": 2,
   "type": "MAT4"
  },
  {
   "bufferView": 7,
   "componentType": 5126,
   "count": 17,
   "type": "SCALAR",
   "min": [
    0.0
   ],
   "max": [
    2.0
   ]
  },
  {
   "bufferView": 8,
   "componentType": 5126,
   "count": 17,
   "type": "VEC4"
  }
 ],
 "buffers": [
  {
   "byteLength": 5036,
   "uri": "data:application/octet-stream;base64,"
  }
 ]
}
